<svg xmlns="http://www.w3.org/2000/svg" width="64" height="64" viewBox="0 0 64 64">
<g stroke-width="1.595" transform="matrix(.55317 0 0 .55317 -125.946 -595.884)"><path fill="#e8edf1" d="m 337.77166,1164.0094 c 0,7.4433 -22.9074,13.5018 -51.08844,13.5018 -28.26347,0 -51.17081,-6.0585 -51.17081,-13.5018 0,-7.4432 22.90734,-13.5016 51.17081,-13.5016 28.18104,0 51.08844,6.0584 51.08844,13.5016 z"/><path fill="#f5ea7e" fill-rule="evenodd" d="m 279.01997,1153.1045 4.61445,-1.6446 5.0264,-1.8173 3.79046,-1.125 0.74158,-0.5197 0.49444,0.086 1.48321,1.5581 1.64803,1.9038 2.38957,2.337 0.98883,0.9518 0.0826,0.6924 -2.30723,0.6059 -4.36723,0.6926 -3.62564,-0.086 -3.70805,-0.4329 -3.21362,-0.7787 -2.06001,-0.8657 -1.4832,-0.606 -0.90642,-0.692 z"/><path fill="#f5ea7e" fill-rule="evenodd" d="m 295.33532,1141.2474 -1.81285,6.5776 6.92166,7.4431 2.80163,-1.2984 2.55444,-1.4711 1.9776,-1.558 1.07124,-1.0385 -0.24715,-3.1157 -0.16472,-2.4236 -0.32951,-1.9903 -1.31846,0.086 -4.86164,-0.086 z"/><path fill="#f5ea7e" fill-rule="evenodd" d="m 274.07594,1142.0263 1.73038,2.3365 0.74165,1.5583 0.82397,1.8174 0.49439,1.3846 0.49443,1.8175 0.4944,1.9905 2.14242,-0.6055 3.87283,-1.5578 3.70804,-1.1252 2.96641,-0.9521 1.31844,-0.3474 0.74159,-0.606 0.49438,-1.731 1.07124,-3.7214 0.16474,-1.1253 -1.07124,-0.2606 -2.88402,-0.6058 -2.14242,-0.519 -2.63681,-0.6926 -2.80163,-0.8651 -2.14239,-1.0387 -1.07124,-0.2606 -0.5768,0 -1.73044,1.3847 -2.71919,2.3364 z"/><path fill="#a3d7d5" fill-rule="evenodd" d="M269.70868 1137.7856l-.9064 1.2121-2.06003.8654-2.71922 1.644-2.3072 2.077-1.81283 1.9905-1.648 2.1639-1.64802 2.3367-2.38963 2.7693-2.55443 2.51-2.06003 1.6448-.65916 1.3845.16472.9522 1.89522-.086 1.64801-.3474-.412 1.7308-.82398 4.154 6.18002-.9516-.16474 2.6829.5768 1.3846 5.85043-3.9811 9.2289-6.5779 4.94407-3.4618.74158-.8651-.24715-1.9044-1.40077-3.8081-3.21365-5.539-1.73041-1.7308-2.06005-1.6441zM301.76255 1154.8354l2.63682-1.4711 3.87288-2.51 3.54318-4.1548 1.97764-3.1154 1.07119-1.9905.5768-1.6441 1.07123.3476 1.5656 1.3845 1.73043 1.7307 1.40081 2.1636 1.07118 2.6831.49444 2.5962.0826 2.7699-.98883 2.5098-2.06003 2.5102.5768-.5197.98883.606 2.06002 2.2503 1.236 1.4714.49444 1.5576-.32952 1.1252-.98883.175-1.23599-.5192-.57681-.606 1.15363 2.077.0825 1.2983-.65921.779-1.23604-.2604-1.56558-.7791-.82402-.6926-1.23599-.6921.74158 1.8173-.24715.8655-.2471.4326-1.15364-.5189-2.2248-.7792-3.46084-2.077-3.95522-2.6833-2.63682-3.0292-.16474-.9518.49444-.9523.5768-.3476-1.15361-.5189zM322.36272 1107.0613l2.38963-1.4712 3.46086-2.3368 1.23598-1.0387.49443 1.4713.57682 2.9428-.0826.4326 1.73043-2.5964.98882-.779.32949 0 .0826 1.6447 0 3.029-.0826 1.1251.82399-.086 1.48323-.2608.49438.1749-1.40077 3.029-1.97764 3.0292-2.63684 3.6351-1.64801 2.0772-4.11998 4.9333-2.38966 2.4231-2.55441 2.2504-2.63685 2.3367 0-1.3849-.24712-6.0581 1.48324-1.9905 1.48321-1.9044 1.48322-3.1154.98878-4.2409.24712-3.9811 0-1.5579-.32951-1.6447zM263.19904 1099.1856l-.49441 0-.82402-.086-2.22482 0-.9064.086 0 .7787.49438 2.2503.74162 2.5964.90643 2.7697 1.81281 4.0677 1.8128 3.981 2.63684 4.5871 2.38959 2.5102 2.55444 2.2502 1.07124.7787.41197.5192 2.14244-1.3845 2.30723-2.4233 2.05997-2.9428.65922-1.9905-.24713-1.2115-1.07121-3.6351 0-2.4233 0-1.5578-.82398-.9523-3.70805-3.4618-2.22483-2.3367-2.63681-2.683-2.2248-2.0774-1.48321-1.2117-1.81286-1.3845-.82399-.3476-.24714-.2607-.41201.6926.16473 1.8171 0 1.9043z"/><path fill="#f5ea7e" fill-rule="evenodd" d="M303.4106 1130.7754l5.68562 1.2115 7.66328.1749.412-.9522c0 0-.16474-2.4231-.16474-2.5962 0-.175-.0825-2.2505-.0825-2.2505l0-.7784-2.80163 1.9902-3.95522 2.0773-3.8728.8657zM280.66796 1117.6203l-1.31839 3.2021-1.81283 2.337.412.6923 5.85043 2.5097 3.29606 1.3848 4.69684 1.0383 2.63684.5196-5.19128-2.5098-5.10883-4.4139-2.3896-3.2888-.82404-1.5579z"/><path fill="#eaede6" fill-rule="evenodd" d="m 277.61915,1106.8019 c 0,0 2.1424,-1.4713 2.1424,-1.4713 l -0.24714,3.1154 z"/><path fill="#a3d7d5" stroke="#000" stroke-linecap="round" stroke-linejoin="round" stroke-width="1.482" d="m 322.36266,1110.1772 c 0,11.6837 -7.25121,20.5981 -19.36416,20.5981 -12.11291,0 -23.56656,-8.9144 -23.56656,-20.5981 0,-6.6645 3.46082,-13.9345 8.40484,-17.8291 3.79042,-2.9424 8.32246,-3.3752 13.51372,-3.3752 7.58084,0 13.10171,3.9813 17.05695,9.6066 2.38963,3.3757 3.95521,7.1837 3.95521,11.5977 z"/><path fill="#f5ea7e" fill-rule="evenodd" d="m 298.63131,1130.6023 -1.07118,3.9811 -1.89523,6.2308 6.26247,1.3855 6.18002,0.086 8.48727,-7.3566 0.41203,-2.8561 -1.15361,0.086 -5.19126,0.086 -1.5656,-0.1749 -3.04885,-0.4327 -2.9664,-0.606 -1.48323,-0.2604 -1.48321,-0.086 z"/><path fill="#f5ea7e" fill-rule="evenodd" d="m 308.35461,1142.1127 4.03763,-3.5478 2.96646,-2.4234 1.15359,-0.9521 -0.57679,3.1154 -1.48325,3.7215 -2.3072,4.1543 -2.80161,3.3757 -0.41203,0.1748 -0.49438,-3.1158 0,-3.1159 z"/><path fill="#dcd487" fill-rule="evenodd" d="m 276.54797,1145.4016 c 0,0 1.9776,1.9041 11.78329,6.0583 9.88808,4.1545 17.13931,0.952 17.13931,0.952 l 0.24715,0.2609 -1.89522,1.2115 -5.02642,2.0773 -5.43846,0.8653 -5.43845,-0.2607 -6.92167,-1.9039 -2.22482,-1.2117 0.0826,-1.2979 -0.6592,-2.2506 -0.98881,-2.8558 z"/><path fill="#73b4b5" fill-rule="evenodd" d="m 319.80832,1158.2108 c 0,0 -5.19126,-1.2115 -8.07528,-3.289 -2.71921,-1.904 -3.13123,-4.7601 -3.04882,-4.933 0.0826,-0.2608 -1.64802,1.8172 -1.64802,1.8172 l -2.55441,1.5583 -2.71924,1.298 1.64805,1.9039 2.14238,1.2984 4.12004,1.1249 3.46084,0.175 z"/><path fill="#6db4b9" fill-rule="evenodd" d="m 316.84191,1125.9287 0.16474,6.4908 4.61442,-3.548 4.28482,-4.2408 2.14247,-2.8563 c 0,0 -2.30725,1.2981 -7.33367,3.462 -5.02646,2.1636 -3.87285,0.6923 -3.87285,0.6923 z"/><path fill="none" stroke="#000" stroke-linecap="round" stroke-linejoin="round" stroke-width="1.482" d="m 316.67703,1125.496 c 0.24711,1.2981 0.3295,3.2886 0.3295,4.76 0,15.059 -11.28888,26.5699 -25.46183,26.5699 -4.77921,0 -9.14647,-1.2115 -12.93689,-3.4618"/><path fill="#f5ea7e" fill-rule="evenodd" d="m 275.72395,1125.5825 4.53204,11.3379 7.08645,2.4231 7.66326,1.8175 0.6592,-0.4331 3.21366,-9.9525 -0.74163,-0.5192 -11.6185,-2.7699 -9.31127,-3.9811 -1.73042,1.5583 z"/><path fill="#dcd487" fill-rule="evenodd" d="m 276.69033,1123.896 1.57955,-1.397 1.45198,-2.1716 0.56678,-1.1494 0.66503,-1.2116 0.66508,1.0386 c 0,0 0.46401,0.934 1.08073,1.8174 0.61672,0.8834 2.81397,3.2343 2.81397,3.2343 l 2.83909,2.2181 4.11904,2.4267 2.86417,1.0352 0.14261,-0.072 2.81164,0.5514 c -1.41324,0.5192 -4.86633,2.8118 -13.59534,-0.8232 -2.82652,-1.1253 -6.28223,-3.2448 -8.11116,-5.4948 z" opacity=".67"/><path fill="#73b4b5" fill-rule="evenodd" d="m 262.78701,1111.8214 1.64801,3.808 1.56563,3.0291 3.29601,3.9817 3.13121,2.7693 0.90645,0.6926 1.89523,-0.7791 2.3896,-2.0773 c 0,0 0.24711,1.7312 -6.50964,-4.3271 -6.67449,-6.0586 -8.3225,-7.0972 -8.3225,-7.0972 z"/><path fill="none" stroke="#000" stroke-linecap="round" stroke-linejoin="round" stroke-width="1.482" d="m 280.91511,1117.1873 c -1.236,3.9814 -4.20243,8.1355 -8.07526,9.174"/><path fill="#eaede6" fill-rule="evenodd" d="m 269.29666,1123.3322 -0.16473,3.0292 -0.6592,3.7218 -0.90641,3.4615 -1.07119,2.5968 -0.41203,0.9518 0.4944,2.6833 2.06004,-0.6926 1.15361,-1.125 1.31839,-3.0291 1.07124,-2.8565 0.49439,-3.8945 0.16473,-2.3367 -0.24715,-0.6058 -1.07119,-0.6926 -1.07124,-0.6921 -0.90638,-0.7792 z"/><path fill="none" stroke="#000" stroke-linecap="round" stroke-linejoin="round" stroke-width="1.482" d="m 272.67505,1125.8421 c 0.0825,0.6926 0.0825,1.5579 0,2.2502 -0.32952,3.8945 -1.15358,7.0971 -3.37843,10.2125"/><path fill="#5ba3a5" fill-rule="evenodd" d="m 258.00778,1167.9041 10.46488,-7.1833 9.47608,-6.8376 0.98883,-1.0387 -0.82402,-2.9424 -0.41197,-1.8177 -1.31846,-2.6828 z"/><path fill="none" stroke="#000" stroke-linecap="round" stroke-linejoin="round" stroke-width="1.482" d="m 269.62623,1137.8721 c 5.02648,3.7215 8.15769,9.0008 9.22887,15.1455"/><path fill="none" stroke="#000" stroke-linecap="round" stroke-width="1.482" d="m 275.4767,1125.1497 4.69682,11.6841 -5.85046,4.8461"/><path fill="none" stroke="#000" stroke-width="1.482" d="m 280.09111,1136.7469 7.33369,2.5965 7.99286,1.8176 3.29602,-10.5589"/><path fill="none" stroke="#000" stroke-linecap="round" stroke-width="1.482" d="m 277.7015,1123.6787 8.81689,3.8075 8.81686,2.1639"/><path fill="none" stroke="#000" stroke-width="1.482" d="m 316.75944,1132.1601 -7.33366,-0.086 -7.25127,-1.1251"/><path fill="none" stroke="#000" stroke-linecap="round" stroke-width="1.482" d="M316.67703 1134.9298l-8.65209 7.3561-6.09764 0-6.50964-1.1249-1.9776 6.7505 6.75683 7.0105M308.18979 1142.5457l.74155 7.1834M279.10231 1152.931l14.25533-4.8466"/><path fill="#78b7b8" fill-rule="evenodd" d="m 319.39632,1158.2975 -6.09765,0.6055 -4.20245,-0.2607 -3.37843,-0.952 -1.40083,0.7789 0.41202,1.8178 3.29603,3.2885 4.86164,3.2026 4.61443,2.2501 -4.69682,-5.0195 -3.62565,-3.0296 c 0,0 -1.89519,0.086 4.69687,-1.0386 6.59204,-1.0387 5.52084,-1.6443 5.52084,-1.6443 z"/><path fill="none" stroke="#000" stroke-linecap="round" stroke-linejoin="round" stroke-width="1.482" d="M315.60584 1139.8631c4.53202 2.1631 6.42723 6.4906 7.16884 10.8182.65922 4.0675-1.31843 7.1832-4.86164 8.9142M313.54579 1159.076c-.32949 0-.74158 0-1.07118 0-4.44967 0-8.40491-1.4713-10.7945-4.3272"/><path fill="none" stroke="#000" stroke-linecap="round" stroke-linejoin="round" stroke-width="1.482" d="m 305.22332,1157.7777 c -0.32949,0.175 -0.5768,0.3476 -0.65918,0.6927 -0.90642,1.9905 3.54321,6.0583 9.88807,9.1737 1.15363,0.5198 2.30723,1.0387 3.46083,1.4718"/><path fill="none" stroke="#000" stroke-width="1.482" d="m 317.83064,1169.1159 c 0,0 0.824,-2.1636 -0.24715,-3.289 -0.98877,-1.1252 4.12009,3.4622 5.43845,2.0772 1.07123,-1.2115 -1.7304,-4.5006 -1.7304,-4.5006 0,0 2.63685,2.5965 3.46084,1.5578 1.81285,-2.1638 -4.69687,-7.0968 -4.69687,-7.0968 l 0,0"/><path fill="#a3d7d5" fill-rule="evenodd" d="m 244.08207,1134.0642 2.14239,2.8562 2.88405,2.8562 3.29602,2.1631 4.36723,1.2115 3.04887,0.2607 1.56558,0.2606 2.55441,-2.0769 1.81285,-1.0385 0.65918,-0.9518 -0.32952,-1.9044 -0.41199,-2.8557 -1.1536,-1.6443 -9.39369,-15.3193 -2.71924,-4.6732 -3.62562,-2.9429 -2.71924,-0.7786 -3.2136,0.086 -3.46086,1.3848 -2.06001,2.3369 -1.4008,3.1155 -0.49439,3.1159 0.24712,5.3659 1.48319,3.5485 1.73042,2.7693 2.63682,1.7308 2.22481,0.8657 z"/><path fill="#52a3ab" fill-rule="evenodd" d="m 263.85821,1132.2467 c 0,0 1.95159,3.7953 -6.89803,5.1915 -9.96155,1.5715 -13.29013,-3.547 -13.29013,-3.547 l 2.80163,3.2884 4.90887,4.3819 5.72081,1.6764 2.71927,0.086 2.14239,0 2.71921,-2.5101 1.73042,-0.7783 -0.49442,-2.8564 -0.3295,-2.2501 z"/><path fill="none" stroke="#000" stroke-width="1.482" d="m 278.69028,1153.1913 c 0,0 -14.25532,10.7314 -20.43535,14.6262 -1.0712,0.6923 -0.65921,-3.9814 -0.65921,-3.9814 l -6.18005,1.0387 1.15361,-5.8853 c 0,0 -1.81282,0 -3.54326,0.1749 -1.23597,0.086 1.15363,-2.2501 2.06005,-3.3749 0.9888,-1.1252 3.13123,-2.6832 4.03762,-3.8947 2.63685,-3.3755 4.03765,-5.7122 6.67448,-8.3956 1.23598,-1.2115 2.47201,-2.3364 3.87282,-3.2017 0.824,-0.5192 1.89521,-0.6924 2.71921,-1.2116 0.24713,-0.1749 0.82405,-0.606 0.82405,-0.606"/><path fill="#c6630c" fill-rule="evenodd" d="m 266.65988,1120.3898 -0.98882,5.7123 -0.0825,7.8755 0.46677,2.7337 1.09877,-1.6948 1.23597,-4.3277 0.98883,-5.7119 -0.095,-2.1781 -1.55316,-1.8033 -0.90639,-1.1252 z"/><path fill="none" stroke="#000" stroke-linecap="round" stroke-linejoin="round" stroke-width="1.482" d="M266.45002 1139.6799c-.65917-2.8563-.95136-6.1602-.95136-9.2759 0-3.7215.41953-7.2448 1.24355-10.6203M277.61909 1106.8017c.16473-.086.16473-.086.32951-.2608.65921-.5189 1.31842-.9521 1.97761-1.3845M273.25185 1125.7554c-4.0376-2.4232-7.16884-6.2312-9.06408-10.645"/><path fill="none" stroke="#000" stroke-width="1.482" d="m 264.35261,1115.6293 -3.62567,-8.135 -2.22482,-8.3954 4.77925,0 c 0,0 -0.82403,-5.7124 0.57679,-4.933 2.80165,1.7307 6.34488,5.2793 6.34488,5.2793 l 9.14646,9.2607"/><path fill="none" stroke="#000" stroke-linecap="round" stroke-linejoin="round" stroke-width="1.482" d="M336.28839 1109.3982c-4.20244 7.7891-10.79447 16.6172-19.28177 23.1947M329.44913 1102.0415c-2.14241 1.904-4.61441 3.635-7.25123 5.0197M329.44913 1101.9552c.82403 1.2115.90642 2.8556.90642 4.5868 0 .3477-.16474.5192-.16474.7789M330.19076 1107.3209c.74158-1.4714 1.73041-2.6829 2.88402-3.7216M333.40441 1103.6859c0 1.1249.24711 4.6737.16474 5.7123M330.19076 1107.3209c.74158-1.4714 1.73041-2.6829 2.88402-3.7216M333.81637 1109.4846c1.56566-.2606 1.07121-.1749 2.55443-.3476M269.37903 1122.7266c0 .086 0-.175 0 0-.0826 5.1927-1.23602 10.1259-3.37843 14.453"/><path fill="none" stroke="#000" stroke-linecap="round" stroke-linejoin="round" stroke-width="1.482" d="m 267.31898,1120.5628 0,0.086 c -0.9064,5.1059 -0.95888,8.0371 0.19481,12.7108"/><path fill="#52a3ab" fill-rule="evenodd" d="m 250.17969,1123.5922 c 0,0 -0.65916,3.548 -2.3072,5.6253 -1.15364,1.3848 -2.96642,1.904 -4.77925,1.6443 -1.7304,-0.3475 -3.21362,-1.5577 -4.28483,-3.029 -1.73042,-2.2503 -3.54327,-7.7891 -3.54327,-7.7891 l 0.74165,6.491 1.8952,3.2884 2.96646,2.7698 3.29599,1.2983 2.55441,-0.3476 2.38966,-1.6446 1.31839,-3.2886 0.16474,-3.1159 z"/><path fill="none" stroke="#000" stroke-linecap="round" stroke-linejoin="round" stroke-width="1.482" d="m 245.07081,1133.8046 c -5.35604,0 -9.72327,-5.6258 -9.72327,-12.4629 0,-6.9239 3.54324,-11.9435 8.89927,-11.9435 3.79043,0 7.82806,2.1636 9.39367,6.0582"/><path fill="none" stroke="#000" stroke-linecap="round" stroke-linejoin="round" stroke-width="1.482" d="m 241.77479,1127.4 c -0.412,-1.9905 -0.824,-4.1544 -0.32949,-5.712 0.57684,-1.8178 2.55444,-2.683 4.12004,-2.5965 2.88403,0 5.02643,3.2888 5.02643,7.3565 0,4.0678 -2.1424,7.2702 -4.86161,7.2702 -0.32952,0 -0.74163,0.086 -1.07124,0"/><path fill="none" stroke="#000" stroke-width="1.482" d="M253.72292 1115.5429l6.67445 11.1646 5.25858 8.1129M243.9172 1133.8046c0 0 2.47204 3.981 6.92167 7.1832 3.0488 2.2499 11.04168 2.5963 11.04168 2.5963"/><path fill="#e27e81" fill-rule="evenodd" d="m 286.84804,1116.668 -1.23602,0.5192 -0.65921,1.6447 2.22479,3.5485 2.63683,2.3365 3.21365,1.9041 4.03765,1.2985 3.54318,0.5192 4.5321,-0.1751 2.63679,-0.5192 2.22485,-0.6059 1.0712,-0.7787 0.32949,-0.8655 0.0825,-0.8653 -0.412,-0.7792 -0.24712,-0.5194 -1.31842,-0.086 -2.3072,-0.6056 -1.81284,-0.5192 -2.14239,-0.4329 -1.97763,0.1751 -2.63684,0.4328 -1.31837,-1.1252 -1.15363,-0.8657 -2.63682,-1.5579 -2.47203,-1.1249 -1.89523,-0.175 -1.4008,-0.4332 z"/><path fill="#463839" fill-rule="evenodd" d="M282.56319 1113.1197l.7416 2.1639.7416 2.2501.65921 1.0383.4944-.9517.24712-.6926.90644-.3476.49441-.2604-1.23602-.9523-1.0712-.6056-1.15361-1.0386zM310.99144 1123.3322l1.81282-.087 3.29602-.2604-.3295.6061-1.15362 1.0384-1.64801.8652-1.15361.8657-.49438 0 .0825-.6923 0-.606-.0825-.6922-.3295-.9522z"/><path fill="#662127" fill-rule="evenodd" d="m 290.36467,1099.7414 -1.87597,1.931 -1.53486,3.0721 -0.7674,4.3887 0.25573,2.9841 3.49605,1.9311 2.217,-3.5988 1.4496,-4.3008 -0.0855,-3.1598 -0.93795,-1.4918 -0.68217,-1.1412 z"/><path fill="none" stroke="#000" stroke-linecap="round" stroke-linejoin="round" stroke-width="1.482" d="m 316.75944,1122.8995 c -3.79045,3.2026 -8.56965,5.6254 -14.00811,5.6254 -11.04172,0 -17.96339,-5.7983 -20.18818,-15.5784"/><path fill="none" stroke="#000" stroke-width="1.482" d="m 282.48074,1112.9465 c 0.41202,0.175 3.95524,4.0677 7.49847,4.3272 3.54321,0.3477 8.56966,4.9333 8.56966,4.9333 0,0 4.69685,-1.2116 8.24009,0.3473 3.46084,1.4719 9.88807,0.3478 9.88807,0.3478"/><path fill="none" stroke="#000" stroke-width="1.482" d="M284.78794 1119.0915c0 0 .16474-1.4713.57684-1.9909.41195-.4326 1.81278-.7784 1.81278-.7784M311.07378 1126.5347c0 0 .412-1.385.412-1.8178-.0825-.519-.824-1.4713-.824-1.4713"/><path fill="#fff" fill-rule="evenodd" d="m 284.37868,1111.0991 0.24958,-2.2962 0.52412,-3.0948 0.62395,-1.9467 0.69882,-1.8718 1.19799,-1.2729 1.22294,-0.7238 0.97336,-0.1248 0.69882,-0.05 -0.27454,0.599 -0.72377,0.4742 -1.17304,1.4226 -0.59899,0.9983 -0.67386,1.4476 -0.37437,1.5224 -0.1747,1.1481 -0.0749,2.1214 0.22462,2.7454 -1.69714,-0.7238 z"/><path fill="none" stroke="#000" stroke-width="1.482" d="m 284.37595,1111.129 5.76804,2.7695 c 0,0 2.88404,-4.0674 3.37843,-8.049 0.41203,-3.0289 -1.48319,-6.4043 -3.37843,-6.1449 -1.56559,0.1751 -2.88402,0.8656 -3.79042,2.6831 -1.73042,3.2888 -1.97762,8.7413 -1.97762,8.7413 z"/><path fill="#fff" fill-rule="evenodd" d="m 314.17852,1119.1854 -0.025,-0.2495 0.49916,-1.198 1.02327,-2.5707 0.92345,-3.6439 0.025,-1.0981 0,-1.2479 -0.62395,-1.8968 -0.49916,-0.8985 -0.32445,-0.3245 0.6489,0 1.22294,0.8985 0.89849,1.6722 0.4742,1.8968 -0.37437,2.6456 -0.69883,2.1464 -0.94839,2.321 -0.79866,1.6722 z"/><path fill="#662127" fill-rule="evenodd" d="m 310.00265,1118.8319 4.03759,0.2608 2.30723,-5.8855 0.41203,-3.6348 -0.90642,-2.8561 -0.5768,-0.6059 -1.15363,-0.087 -1.89516,1.2982 -0.82403,2.4235 -0.90642,3.1157 -0.49439,4.3272 z"/><path fill="none" stroke="#000" stroke-width="1.482" d="m 309.83778,1119.005 5.85048,0.1749 c 0,0 2.55441,-4.5871 2.63678,-8.2223 0,-1.3847 -0.65918,-3.2883 -1.4832,-4.154 -0.6592,-0.7792 -1.31843,-0.6926 -2.06003,-0.8655 -4.36723,-0.6924 -4.94403,13.0687 -4.94403,13.0687 z"/><path fill="none" stroke="#000" stroke-linecap="round" stroke-width="1.482" d="M312.06258 1105.8495c.74163-1.904 1.4008-2.3368 2.06005-3.1155M295.25285 1101.7819c-.24715-1.2117-.0825-2.5965-1.3184-3.5485"/><path fill="none" stroke="#000" stroke-width="1.482" d="M286.68317 1112.1676c-.824-6.7508 1.07119-10.2124 4.03763-12.2897M314.04019 1119.1778c1.89523-4.5869 4.12007-9.6932 1.15363-13.0687"/><path fill-rule="evenodd" stroke="#000" stroke-width="1.482" d="M297.39529 1115.3698c0 0 .16474 1.8175.65917 2.4234.0825.086.3295 0 .41203-.086.0825 0 .16473-.175.16473-.3476-.0825-.7789-1.23602-1.9905-1.23602-1.9905zM302.4217 1118.8319c0 0 1.31841-1.2117 2.06001-1.2982.16474 0 .24715.1749.24715.2608.0826.086.0826.2605 0 .3475-.65921.6056-2.30723.6921-2.30723.6921z"/><path fill="#f5ea7e" fill-rule="evenodd" stroke="#000" stroke-width="1.482" d="m 274.15827,1141.8528 6.01525,-4.9325 -4.69682,-11.6838 -2.55444,1.1248 -0.41199,3.2023 -0.65924,3.5487 -1.48317,3.8943 -0.74163,0.8655 z"/><path fill="none" stroke="#000" stroke-linecap="round" stroke-width="1.482" d="m 265.25897,1101.7819 c 0,0 -0.24714,-1.5578 -0.0825,-2.3367 0.0825,-0.5192 1.64805,0.6923 1.64805,0.6923"/><path d="M293.19286 1105.5901c-.41198 2.8559-2.05997 5.1063-3.6256 4.9332-1.48321-.1749-2.38966-2.6829-1.97763-5.5391.41202-2.8561 1.97763-5.1063 3.54326-4.9329 1.56558.175 2.472 2.6828 2.05997 5.5388zM316.59466 1111.0425c-.41197 2.5964-1.9776 4.5869-3.4608 4.414-1.48321-.086-2.38963-2.3368-1.97761-4.9332.41199-2.5962 1.97761-4.5872 3.46081-4.414 1.48322.1748 2.38963 2.3367 1.9776 4.9332z"/><path fill="#fff" d="M292.61606 1104.7246c-.32949 2.0773-1.48317 3.635-2.55441 3.4617-1.15361-.086-1.73039-1.8172-1.4832-3.8944.32952-2.0773 1.4832-3.635 2.55444-3.4622 1.15358.086 1.73041 1.8181 1.48317 3.8949zM316.01789 1110.4369c-.32949 2.0768-1.56564 3.7215-2.71922 3.5483-1.23605-.086-1.89521-1.904-1.56563-3.9809.24711-2.0772 1.48322-3.6352 2.71921-3.4622 1.15361.086 1.89522 1.9039 1.56564 3.8948z"/>
</g></svg>